Coordinates
version=1
nRows=8
nColumns=44
inDegrees=no
Units are S.I. units (second, meters, Newtons, ...)
If the header above contains a line with 'inDegrees', this indicates whether rotational values are in degrees (yes) or radians (no).
endheader
time	pelvis_tilt	pelvis_list	pelvis_rotation	pelvis_tx	pelvis_ty	pelvis_tz	hip_flexion_r	hip_adduction_r	hip_rotation_r	knee_angle_r	knee_frontal_r	knee_adduction_r	knee_angle_r_beta	ankle_angle_r	subtalar_angle_r	mtp_angle_r	hip_flexion_l	hip_adduction_l	hip_rotation_l	knee_angle_l	knee_frontal_l	knee_adduction_l	knee_angle_l_beta	ankle_angle_l	subtalar_angle_l	mtp_angle_l	lumbar_extension	lumbar_bending	lumbar_rotation	arm_flex_r	arm_add_r	arm_rot_r	elbow_flex_r	pro_sup_r	wrist_flex_r	wrist_dev_r	arm_flex_l	arm_add_l	arm_rot_l	elbow_flex_l	pro_sup_l	wrist_flex_l	wrist_dev_l
    1.00000000000000	   -0.13359266966628	    0.01730330160779	   -0.08407053987896	    0.80449613333565	    0.96971027680740	    0.47074606301486	    0.58349741972599	   -0.02734768428490	    0.06143072829246	    0.98390229208837	    0.00000000000000	    0.00000000000000	    0.98390229208837	    0.04170561831292	   -0.07551490591880	   -0.24359545433375	    0.16871944903095	    0.03290151187605	    0.03769606765678	    0.27386012165548	    0.00000000000000	    0.00000000000000	    0.27386012165548	    0.16515626795046	   -0.07621762346783	   -0.20743586675984	   -0.05475184091370	    0.02219377660404	    0.00003883746772	   -0.11320229052520	   -0.24780684281308	   -0.06451594986997	    0.53942261794118	    1.57079632696943	    0.00000000000000	    0.00000000000000	   -0.02169714811860	   -0.40476608237816	    0.10349495295396	    0.83944766883369	    1.57079632696943	    0.00000000000000	    0.00000000000000
    1.00500000000000	   -0.13376718340565	    0.01753077781603	   -0.08222813923676	    0.80393829042008	    0.96966346699112	    0.47074282536474	    0.58696742185800	   -0.02817456557066	    0.05963539343166	    0.95796654557870	    0.00000000000000	    0.00000000000000	    0.95796654557870	    0.04347319493461	   -0.07832299586385	   -0.24215676627622	    0.16100392005977	    0.03373547932838	    0.03986640240229	    0.27039844765342	    0.00000000000000	    0.00000000000000	    0.27039844765342	    0.16710989226462	   -0.07491533326255	   -0.20939840314344	   -0.05487371880643	    0.02224806969136	    0.00004061269716	   -0.11911018652471	   -0.24632180696517	   -0.06766107495841	    0.53531528977090	    1.57079632696943	    0.00000000000000	    0.00000000000000	   -0.01567705814883	   -0.40839817039532	    0.10269315032878	    0.85040439624775	    1.57079632696943	    0.00000000000000	    0.00000000000000
    1.01000000000000	   -0.13391674282141	    0.01788076025979	   -0.08041814286894	    0.80337853180668	    0.96958007183941	    0.47076502138619	    0.58990904676704	   -0.02912995641853	    0.05816395355331	    0.93087087329509	    0.00000000000000	    0.00000000000000	    0.93087087329509	    0.04461054238612	   -0.08096887852345	   -0.24065483499495	    0.15331242875462	    0.03463088030409	    0.04196595977798	    0.26702871436013	    0.00000000000000	    0.00000000000000	    0.26702871436013	    0.16899837527844	   -0.07362590966436	   -0.21157080515104	   -0.05504879462629	    0.02208944946090	    0.00004234955148	   -0.12481914714569	   -0.24477613847916	   -0.07067422596798	    0.53129910829393	    1.57079632696943	    0.00000000000000	    0.00000000000000	   -0.00983493382040	   -0.41201422347464	    0.10178974602573	    0.86156541075436	    1.57079632696943	    0.00000000000000	    0.00000000000000
    1.01500000000000	   -0.13404946782086	    0.01835457453514	   -0.07864407368053	    0.80281889260747	    0.96946037612034	    0.47081279858727	    0.59233153093279	   -0.03020535806076	    0.05704042264436	    0.90265284258384	    0.00000000000000	    0.00000000000000	    0.90265284258384	    0.04518910739038	   -0.08338601163069	   -0.23911872501353	    0.14565096526684	    0.03558803141468	    0.04398952878848	    0.26375316579071	    0.00000000000000	    0.00000000000000	    0.26375316579071	    0.17080927043267	   -0.07234849536744	   -0.21395257234237	   -0.05526275459363	    0.02172019435953	    0.00004402288743	   -0.13033114339857	   -0.24317333260206	   -0.07354766504731	    0.52738032056183	    1.57079632696943	    0.00000000000000	    0.00000000000000	   -0.00418293086505	   -0.41561003440492	    0.10078666685205	    0.87291326605057	    1.57079632696943	    0.00000000000000	    0.00000000000000
    1.02000000000000	   -0.13417360856420	    0.01895400892579	   -0.07690820212774	    0.80226155978041	    0.96930462838205	    0.47088589413022	    0.59424786114759	   -0.03139463492433	    0.05628361405895	    0.87336110975994	    0.00000000000000	    0.00000000000000	    0.87336110975994	    0.04528721665083	   -0.08551523938858	   -0.23757144003814	    0.13802597443017	    0.03660884893839	    0.04593366098659	    0.26057438626376	    0.00000000000000	    0.00000000000000	    0.26057438626376	    0.17253045156876	   -0.07108288203417	   -0.21653954409432	   -0.05550057224228	    0.02114281032053	    0.00004561062994	   -0.13565108881446	   -0.24151803016207	   -0.07627647953500	    0.52356830022722	    1.57079632696943	    0.00000000000000	    0.00000000000000	    0.00126756250170	   -0.41918120041540	    0.09968806763936	    0.88442957632181	    1.57079632696943	    0.00000000000000	    0.00000000000000
    1.02500000000000	   -0.13429750003067	    0.01968112516726	   -0.07521168222417	    0.80170880929716	    0.96911303059884	    0.47098365994344	    0.59567497217023	   -0.03269385172218	    0.05590663743502	    0.84305634792164	    0.00000000000000	    0.00000000000000	    0.84305634792164	    0.04498874468048	   -0.08730522343222	   -0.23602993112728	    0.13044458891279	    0.03769654739765	    0.04779645054110	    0.25749575471349	    0.00000000000000	    0.00000000000000	    0.25749575471349	    0.17415067536636	   -0.06982923015873	   -0.21932396121827	   -0.05574675632099	    0.02036014833889	    0.00004709387674	   -0.14078636501589	   -0.23981595176332	   -0.07885825080360	    0.51987508675209	    1.57079632696943	    0.00000000000000	    0.00000000000000	    0.00650607363702	   -0.42272304502762	    0.09850003988173	    0.89609509951453	    1.57079632696943	    0.00000000000000	    0.00000000000000
    1.03000000000000	   -0.13442951155372	    0.02053797441230	   -0.07355467502179	    0.80116294173612	    0.96888573609184	    0.47110510145135	    0.59663381111386	   -0.03410094341911	    0.05591643139833	    0.81181189823850	    0.00000000000000	    0.00000000000000	    0.81181189823850	    0.04438165461712	   -0.08871262727463	   -0.23450546777210	    0.12291484408599	    0.03885521211039	    0.04957728609011	    0.25452189368405	    0.00000000000000	    0.00000000000000	    0.25452189368405	    0.17566013705244	   -0.06858772391730	   -0.22229467287673	   -0.05598562755464	    0.01937561249693	    0.00004845686897	   -0.14574630908916	   -0.23807380312209	   -0.08129273329484	    0.51631485543768	    1.57079632696943	    0.00000000000000	    0.00000000000000	    0.01152320323975	   -0.42623054270000	    0.09723029187780	    0.90788982041580	    1.57079632696943	    0.00000000000000	    0.00000000000000
    1.03500000000000	   -0.13457797760556	    0.02152623066956	   -0.07193646026085	    0.80062621958989	    0.96862285652826	    0.47124892750740	    0.59714924977267	   -0.03561523434897	    0.05631336309390	    0.77971412216632	    0.00000000000000	    0.00000000000000	    0.77971412216632	    0.04355642581608	   -0.08970208131223	   -0.23300433243105	    0.11544584481640	    0.04008926522662	    0.05127658125356	    0.25165908699668	    0.00000000000000	    0.00000000000000	    0.25165908699668	    0.17705099984480	   -0.06735817895433	   -0.22543749955864	   -0.05620162932103	    0.01819344992352	    0.00004968686857	   -0.15054167655695	   -0.23629915743458	   -0.08358156337253	    0.51290333597840	    1.57079632696943	    0.00000000000000	    0.00000000000000	    0.01631078698416	   -0.42969824517197	    0.09588781159808	    0.91979302660681	    1.57079632696943	    0.00000000000000	    0.00000000000000
